<svg width="79" height="80" viewBox="0 0 79 80" fill="none" xmlns="http://www.w3.org/2000/svg">
<rect width="79" height="80" rx="20" fill="url(#paint0_radial_185_131)"/>
<mask id="mask0_185_131" style="mask-type:alpha" maskUnits="userSpaceOnUse" x="0" y="0" width="79" height="80">
<rect width="79" height="80" rx="20" fill="url(#paint1_radial_185_131)"/>
</mask>
<g mask="url(#mask0_185_131)">
<path d="M52.6887 91.6541C51.6954 92.1372 50.4985 91.7236 50.0154 90.7302L17.2043 23.2618C16.8606 22.5551 16.9626 21.7127 17.465 21.1085L23.7629 13.5331C24.1289 13.0929 24.666 12.8306 25.2383 12.8127L35.1672 12.5017C35.955 12.4771 36.6837 12.9173 37.0284 13.6261L69.8376 81.0904C70.3206 82.0837 69.907 83.2806 68.9137 83.7636L52.6887 91.6541Z" fill="url(#paint2_linear_185_131)"/>
<path d="M11.8249 85.6102C10.817 85.1582 10.3664 83.9747 10.8185 82.9669L38.9244 20.3005C39.2601 19.552 40.0188 19.0844 40.8383 19.1209L51.6721 19.6035C52.2337 19.6285 52.7588 19.8887 53.1189 20.3203L58.7919 27.121C59.2816 27.7081 59.3938 28.5231 59.0809 29.2206L30.9301 91.987C30.4781 92.9948 29.2947 93.4454 28.2868 92.9934L11.8249 85.6102Z" fill="url(#paint3_linear_185_131)"/>
</g>
<defs>
<radialGradient id="paint0_radial_185_131" cx="0" cy="0" r="1" gradientUnits="userSpaceOnUse" gradientTransform="translate(39.5 40) rotate(90) scale(40 39.5)">
<stop stop-color="#349FC9"/>
<stop offset="1" stop-color="#1A80A8"/>
</radialGradient>
<radialGradient id="paint1_radial_185_131" cx="0" cy="0" r="1" gradientUnits="userSpaceOnUse" gradientTransform="translate(39.5 40) rotate(90) scale(40 39.5)">
<stop stop-color="#F16A28"/>
<stop offset="1" stop-color="#C9561E"/>
</radialGradient>
<linearGradient id="paint2_linear_185_131" x1="26.4275" y1="17.0354" x2="57.644" y2="86.8055" gradientUnits="userSpaceOnUse">
<stop stop-color="#F3DE13"/>
<stop offset="1" stop-color="#D9D9D9" stop-opacity="0"/>
</linearGradient>
<linearGradient id="paint3_linear_185_131" x1="49.6367" y1="23.3384" x2="17.0603" y2="89.4332" gradientUnits="userSpaceOnUse">
<stop stop-color="#D9D9D9"/>
<stop offset="1" stop-color="#D9D9D9" stop-opacity="0"/>
</linearGradient>
</defs>
</svg>
