<svg width="235" height="235" viewBox="0 0 235 235" fill="none" xmlns="http://www.w3.org/2000/svg">
<g filter="url(#filter0_b_188_444)">
<circle cx="117.5" cy="117.5" r="117.5" fill="#349FC9"/>
</g>
<path d="M66.2423 114.358H23.9877L15 133.642H61.9513L62.9016 129.289H54.8667L55.6443 125.818H62.8728L63.708 122.099H56.4795L57.2282 118.711H65.2632L66.2423 114.358Z" fill="url(#paint0_linear_188_444)"/>
<path d="M79.8432 114.358L75.4369 120.832L73.7953 114.358H68.2083L71.2898 123.284L63.7157 133.642H69.7347L74.4001 127.003L76.1569 133.642H81.7439L78.576 123.917L85.8909 114.358H79.8432Z" fill="url(#paint1_linear_188_444)"/>
<path d="M95.2954 114.358H88.0093L83.7182 133.642H89.1612L90.3996 128.077H91.8683C96.793 128.077 100.335 125.818 101.257 121.713C102.178 117.609 100.076 114.358 95.2954 114.358ZM95.8426 121.493C95.4106 123.477 94.0571 124.331 91.9547 124.331H91.2348L92.6171 118.16H93.7115C95.5834 118.16 96.2458 119.62 95.8426 121.493Z" fill="url(#paint2_linear_188_444)"/>
<path d="M118.638 114.358H105.39L101.099 133.642H114.346L115.297 129.289H107.262L108.039 125.818H115.268L116.103 122.099H108.875L109.623 118.711H117.658L118.638 114.358Z" fill="url(#paint3_linear_188_444)"/>
<path d="M135.147 121.466C136.126 117.058 133.793 114.358 128.725 114.358H121.871L117.58 133.642H122.994L124.434 127.113H125.903H126.479L128.322 133.642H133.88L131.144 125.983C133.275 125.405 134.657 123.669 135.147 121.466ZM126.421 118.187H127.573C129.474 118.187 130.28 119.537 129.877 121.521C129.502 123.174 128.149 124.055 125.903 124.055H125.125L126.421 118.187Z" fill="url(#paint4_linear_188_444)"/>
<path d="M153.55 133.642L150.843 114.331H144.91L133.822 133.642H139.352L141.425 129.702H147.847L148.135 133.642H153.55ZM147.588 125.956H143.384L147.041 119.041L147.588 125.956Z" fill="url(#paint5_linear_188_444)"/>
<path d="M168.802 125.46L164.511 114.358H159.529L155.238 133.642H160.278L162.783 122.402L167.161 133.642H172.028L176.319 114.358H171.279L168.802 125.46Z" fill="url(#paint6_linear_188_444)"/>
<path d="M191.096 126.204C190.376 128.848 188.763 129.702 186.834 129.702C182.975 129.702 181.736 126.865 182.543 123.146C183.148 120.474 184.933 118.518 187.784 118.518C189.311 118.518 191.355 119.152 191.73 121.135H197C196.626 116.562 192.795 114 187.813 114C182.255 114 178.252 117.526 177.129 122.485C175.631 129.041 179.202 134 186.402 134C191.989 134 195.934 130.997 196.568 124.11L196.683 122.705H186.402L185.596 126.204H191.096Z" fill="url(#paint7_linear_188_444)"/>
<defs>
<filter id="filter0_b_188_444" x="-15" y="-15" width="265" height="265" filterUnits="userSpaceOnUse" color-interpolation-filters="sRGB">
<feFlood flood-opacity="0" result="BackgroundImageFix"/>
<feGaussianBlur in="BackgroundImageFix" stdDeviation="7.5"/>
<feComposite in2="SourceAlpha" operator="in" result="effect1_backgroundBlur_188_444"/>
<feBlend mode="normal" in="SourceGraphic" in2="effect1_backgroundBlur_188_444" result="shape"/>
</filter>
<linearGradient id="paint0_linear_188_444" x1="197" y1="124.435" x2="26.6413" y2="123.927" gradientUnits="userSpaceOnUse">
<stop stop-color="#F9E002"/>
<stop offset="0.822917" stop-color="#E5CF06"/>
<stop offset="1" stop-color="#FFFBD5" stop-opacity="0"/>
</linearGradient>
<linearGradient id="paint1_linear_188_444" x1="197" y1="124.435" x2="26.6413" y2="123.927" gradientUnits="userSpaceOnUse">
<stop stop-color="#F9E002"/>
<stop offset="0.822917" stop-color="#E5CF06"/>
<stop offset="1" stop-color="#FFFBD5" stop-opacity="0"/>
</linearGradient>
<linearGradient id="paint2_linear_188_444" x1="197" y1="124.435" x2="26.6413" y2="123.927" gradientUnits="userSpaceOnUse">
<stop stop-color="#F9E002"/>
<stop offset="0.822917" stop-color="#E5CF06"/>
<stop offset="1" stop-color="#FFFBD5" stop-opacity="0"/>
</linearGradient>
<linearGradient id="paint3_linear_188_444" x1="197" y1="124.435" x2="26.6413" y2="123.927" gradientUnits="userSpaceOnUse">
<stop stop-color="#F9E002"/>
<stop offset="0.822917" stop-color="#E5CF06"/>
<stop offset="1" stop-color="#FFFBD5" stop-opacity="0"/>
</linearGradient>
<linearGradient id="paint4_linear_188_444" x1="197" y1="124.435" x2="26.6413" y2="123.927" gradientUnits="userSpaceOnUse">
<stop stop-color="#F9E002"/>
<stop offset="0.822917" stop-color="#E5CF06"/>
<stop offset="1" stop-color="#FFFBD5" stop-opacity="0"/>
</linearGradient>
<linearGradient id="paint5_linear_188_444" x1="197" y1="124.435" x2="26.6413" y2="123.927" gradientUnits="userSpaceOnUse">
<stop stop-color="#F9E002"/>
<stop offset="0.822917" stop-color="#E5CF06"/>
<stop offset="1" stop-color="#FFFBD5" stop-opacity="0"/>
</linearGradient>
<linearGradient id="paint6_linear_188_444" x1="197" y1="124.435" x2="26.6413" y2="123.927" gradientUnits="userSpaceOnUse">
<stop stop-color="#F9E002"/>
<stop offset="0.822917" stop-color="#E5CF06"/>
<stop offset="1" stop-color="#FFFBD5" stop-opacity="0"/>
</linearGradient>
<linearGradient id="paint7_linear_188_444" x1="197" y1="124.435" x2="26.6413" y2="123.927" gradientUnits="userSpaceOnUse">
<stop stop-color="#F9E002"/>
<stop offset="0.822917" stop-color="#E5CF06"/>
<stop offset="1" stop-color="#FFFBD5" stop-opacity="0"/>
</linearGradient>
</defs>
</svg>
