<svg width="76" height="27" viewBox="0 0 76 27" fill="none" xmlns="http://www.w3.org/2000/svg">
<rect width="27" height="27" rx="5" fill="white"/>
<path d="M17.944 19.816C17.992 19.9387 17.952 20 17.824 20H16.584C16.4987 20 16.44 19.9573 16.408 19.872L15.288 16.616H10.72L9.616 19.872C9.59467 19.9573 9.536 20 9.44 20H8.248C8.12 20 8.07733 19.9387 8.12 19.816L12.032 8.928C12.0587 8.84267 12.1147 8.8 12.2 8.8H13.904C13.9893 8.8 14.048 8.84267 14.08 8.928L17.944 19.816ZM12.984 9.856L11.104 15.416H14.896L12.984 9.856Z" fill="#359FC9"/>
<rect x="41" y="6" width="31" height="16" rx="2" fill="white"/>
<rect x="42.5" y="7.5" width="28" height="13" rx="1.5" fill="white" stroke="#5EBADE"/>
<rect x="73" y="11" width="3" height="5" rx="1" fill="white"/>
</svg>
