<svg width="155" height="18" viewBox="0 0 155 18" fill="none" xmlns="http://www.w3.org/2000/svg">
<path d="M43.6405 0.322314H7.65432L0 17.6777H39.986L40.7954 13.7603H33.9524L34.6146 10.6364H40.7708L41.4821 7.28926H35.3259L35.9636 4.23967H42.8065L43.6405 0.322314Z" fill="url(#paint0_linear_139_227)"/>
<path d="M55.2236 0.322314L51.471 6.14876L50.073 0.322314H45.3148L47.9391 8.35537L41.4886 17.6777H46.6147L50.588 11.7025L52.0841 17.6777H56.8423L54.1444 8.92562L60.3742 0.322314H55.2236Z" fill="url(#paint1_linear_139_227)"/>
<path d="M68.3835 0.322314H62.1782L58.5237 17.6777H63.1593L64.2139 12.6694H65.4648C69.6589 12.6694 72.6756 10.6364 73.4605 6.94215C74.2453 3.24793 72.4549 0.322314 68.3835 0.322314ZM68.8495 6.7438C68.4816 8.52893 67.3288 9.29752 65.5384 9.29752H64.9252L66.1025 3.7438H67.0345C68.6287 3.7438 69.1928 5.05785 68.8495 6.7438Z" fill="url(#paint2_linear_139_227)"/>
<path d="M88.2627 0.322314H76.9804L73.326 17.6777H84.6082L85.4176 13.7603H78.5747L79.2369 10.6364H85.3931L86.1044 7.28926H79.9482L80.5859 4.23967H87.4288L88.2627 0.322314Z" fill="url(#paint3_linear_139_227)"/>
<path d="M102.323 6.71901C103.157 2.75207 101.17 0.322314 96.8536 0.322314H91.0162L87.3617 17.6777H91.9728L93.1991 11.8017H94.45H94.9405L96.5102 17.6777H101.244L98.9138 10.7851C100.729 10.2645 101.906 8.70248 102.323 6.71901ZM94.8914 3.76859H95.8725C97.4913 3.76859 98.178 4.98347 97.8346 6.7686C97.5158 8.2562 96.363 9.04959 94.45 9.04959H93.7877L94.8914 3.76859Z" fill="url(#paint4_linear_139_227)"/>
<path d="M117.996 17.6777L115.69 0.297521H110.638L101.195 17.6777H105.904L107.67 14.1322H113.139L113.385 17.6777H117.996ZM112.919 10.7603H109.338L112.453 4.53719L112.919 10.7603Z" fill="url(#paint5_linear_139_227)"/>
<path d="M130.985 10.314L127.331 0.322314H123.088L119.433 17.6777H123.725L125.859 7.56198L129.587 17.6777H133.732L137.387 0.322314H133.095L130.985 10.314Z" fill="url(#paint6_linear_139_227)"/>
<path d="M149.972 10.9835C149.359 13.3636 147.985 14.1322 146.342 14.1322C143.056 14.1322 142.001 11.5785 142.688 8.23141C143.203 5.82645 144.723 4.06612 147.151 4.06612C148.451 4.06612 150.193 4.63636 150.512 6.42149H155C154.681 2.30579 151.419 0 147.176 0C142.442 0 139.033 3.17355 138.077 7.63636C136.801 13.5372 139.843 18 145.974 18C150.732 18 154.093 15.2975 154.632 9.09917L154.73 7.83471H145.974L145.287 10.9835H149.972Z" fill="url(#paint7_linear_139_227)"/>
<defs>
<linearGradient id="paint0_linear_139_227" x1="155" y1="9.39133" x2="6.38664" y2="0.394977" gradientUnits="userSpaceOnUse">
<stop stop-color="white"/>
<stop offset="0.765625" stop-color="white"/>
<stop offset="0.9999" stop-color="white" stop-opacity="0"/>
<stop offset="1" stop-color="#33A4CB" stop-opacity="0"/>
</linearGradient>
<linearGradient id="paint1_linear_139_227" x1="155" y1="9.39133" x2="6.38664" y2="0.394977" gradientUnits="userSpaceOnUse">
<stop stop-color="white"/>
<stop offset="0.765625" stop-color="white"/>
<stop offset="0.9999" stop-color="white" stop-opacity="0"/>
<stop offset="1" stop-color="#33A4CB" stop-opacity="0"/>
</linearGradient>
<linearGradient id="paint2_linear_139_227" x1="155" y1="9.39133" x2="6.38664" y2="0.394977" gradientUnits="userSpaceOnUse">
<stop stop-color="white"/>
<stop offset="0.765625" stop-color="white"/>
<stop offset="0.9999" stop-color="white" stop-opacity="0"/>
<stop offset="1" stop-color="#33A4CB" stop-opacity="0"/>
</linearGradient>
<linearGradient id="paint3_linear_139_227" x1="155" y1="9.39133" x2="6.38664" y2="0.394977" gradientUnits="userSpaceOnUse">
<stop stop-color="white"/>
<stop offset="0.765625" stop-color="white"/>
<stop offset="0.9999" stop-color="white" stop-opacity="0"/>
<stop offset="1" stop-color="#33A4CB" stop-opacity="0"/>
</linearGradient>
<linearGradient id="paint4_linear_139_227" x1="155" y1="9.39133" x2="6.38664" y2="0.394977" gradientUnits="userSpaceOnUse">
<stop stop-color="white"/>
<stop offset="0.765625" stop-color="white"/>
<stop offset="0.9999" stop-color="white" stop-opacity="0"/>
<stop offset="1" stop-color="#33A4CB" stop-opacity="0"/>
</linearGradient>
<linearGradient id="paint5_linear_139_227" x1="155" y1="9.39133" x2="6.38664" y2="0.394977" gradientUnits="userSpaceOnUse">
<stop stop-color="white"/>
<stop offset="0.765625" stop-color="white"/>
<stop offset="0.9999" stop-color="white" stop-opacity="0"/>
<stop offset="1" stop-color="#33A4CB" stop-opacity="0"/>
</linearGradient>
<linearGradient id="paint6_linear_139_227" x1="155" y1="9.39133" x2="6.38664" y2="0.394977" gradientUnits="userSpaceOnUse">
<stop stop-color="white"/>
<stop offset="0.765625" stop-color="white"/>
<stop offset="0.9999" stop-color="white" stop-opacity="0"/>
<stop offset="1" stop-color="#33A4CB" stop-opacity="0"/>
</linearGradient>
<linearGradient id="paint7_linear_139_227" x1="155" y1="9.39133" x2="6.38664" y2="0.394977" gradientUnits="userSpaceOnUse">
<stop stop-color="white"/>
<stop offset="0.765625" stop-color="white"/>
<stop offset="0.9999" stop-color="white" stop-opacity="0"/>
<stop offset="1" stop-color="#33A4CB" stop-opacity="0"/>
</linearGradient>
</defs>
</svg>
