<svg width="672" height="737" viewBox="0 0 672 737" fill="none" xmlns="http://www.w3.org/2000/svg">
<path d="M0 0H672V722C672 730.284 665.284 737 657 737H15C6.71571 737 0 730.284 0 722V0Z" fill="#E8D41A"/>
<mask id="mask0_155_66" style="mask-type:alpha" maskUnits="userSpaceOnUse" x="0" y="0" width="672" height="737">
<path d="M0 0H672V722C672 730.284 665.284 737 657 737H15C6.71571 737 0 730.284 0 722V0Z" fill="#E8D41A"/>
</mask>
<g mask="url(#mask0_155_66)">
<path d="M242.574 674.269L344.204 568.711C345.998 566.848 347.002 564.285 346.992 561.698C344.64 -76.3732 -205.582 -297.703 -536.247 -148.131C-539.78 -146.532 -542 -143.004 -542 -139.126V100.061C-542 106.179 -536.365 110.832 -530.31 109.959C-62.7543 42.5602 104.553 214.784 71.119 625.656C70.7242 630.507 73.8387 635.087 78.5456 636.328L232.821 677.003C236.327 677.927 240.059 676.881 242.574 674.269Z" fill="url(#paint0_linear_155_66)"/>
<path d="M605.269 128.726C578.209 459.63 725.951 549.987 905.476 544.719C911.19 544.551 916 549.093 916 554.81V756.415C916 761.636 911.994 765.99 906.781 766.282C782.912 773.209 635.042 728.347 575.333 704.46C348.262 595.741 323.683 278.079 340.064 126.928C340.469 123.193 342.96 120.144 346.484 118.842L469.873 73.2791C472.108 72.4536 474.565 72.4536 476.801 73.2791L598.757 118.313C602.992 119.877 605.637 124.227 605.269 128.726Z" fill="url(#paint1_linear_155_66)"/>
</g>
<defs>
<linearGradient id="paint0_linear_155_66" x1="267.388" y1="676.021" x2="-408.16" y2="-148.651" gradientUnits="userSpaceOnUse">
<stop stop-color="#9263D5"/>
<stop offset="1" stop-color="#A481C3" stop-opacity="0"/>
</linearGradient>
<linearGradient id="paint1_linear_155_66" x1="479.456" y1="70.9792" x2="917.098" y2="702.365" gradientUnits="userSpaceOnUse">
<stop stop-color="#9263D5"/>
<stop offset="1" stop-color="#D9D9D9" stop-opacity="0"/>
</linearGradient>
</defs>
</svg>
